<?xml version="1.0" encoding="UTF-8" standalone="no"?><!DOCTYPE svg PUBLIC "-//W3C//DTD SVG 1.1//EN" "http://www.w3.org/Graphics/SVG/1.1/DTD/svg11.dtd"><svg width="100%" height="100%" viewBox="0 0 512 512" version="1.1" xmlns="http://www.w3.org/2000/svg" xmlns:xlink="http://www.w3.org/1999/xlink" xml:space="preserve" xmlns:serif="http://www.serif.com/" style="fill-rule:evenodd;clip-rule:evenodd;stroke-linejoin:round;stroke-miterlimit:2;"><g id="Icon"><g><path d="M35.31,317.794c0,-4.875 3.953,-8.828 8.828,-8.828l8.828,0l29.497,-29.497c-18.685,-29.841 -29.497,-65.113 -29.497,-102.916c0,-42.941 13.963,-82.604 37.559,-114.759l-64.042,0c-14.626,0 -26.483,11.856 -26.483,26.482l-0,273.655l35.31,-35.31l0,-8.827Z" style="fill:#b9ebff;fill-rule:nonzero;"/><path d="M485.517,61.794l-81.697,-0c23.596,32.154 37.559,71.818 37.559,114.759c0,11.103 -0.946,21.983 -2.734,32.576l73.355,73.354l0,-194.207c0,-14.626 -11.857,-26.482 -26.483,-26.482Z" style="fill:#b9ebff;fill-rule:nonzero;"/></g><g><path d="M233.931,313.38l13.241,-13.241c-10.422,0 -20.54,-1.297 -30.208,-3.725l16.967,16.966Z" style="fill:#d2f5f0;fill-rule:nonzero;"/><path d="M82.463,279.469l33.811,-33.811c6.194,-6.194 14.116,-9.597 22.215,-10.226c-9.504,-17.504 -14.902,-37.561 -14.902,-58.88c0,-52.098 32.281,-96.578 77.897,-114.759l-110.959,0c-23.596,32.154 -37.559,71.818 -37.559,114.759c-0,37.803 10.812,73.076 29.497,102.917Z" style="fill:#d2f5f0;fill-rule:nonzero;"/><path d="M370.759,176.552c0,0.573 -0.014,1.141 -0.022,1.711c13.507,-7.821 31.085,-5.958 42.645,5.602l25.262,25.262c1.79,-10.593 2.734,-21.473 2.734,-32.576c0,-42.941 -13.963,-82.604 -37.559,-114.759l-110.957,0c45.615,18.182 77.897,62.662 77.897,114.76Z" style="fill:#d2f5f0;fill-rule:nonzero;"/></g><path d="M123.586,176.552c0,21.319 5.398,41.376 14.901,58.88c9.931,-0.772 20.127,2.631 27.722,10.226l50.754,50.754c9.67,2.43 19.787,3.726 30.209,3.726l116.274,-116.274c2.23,-2.23 4.686,-4.093 7.292,-5.602c0.008,-0.57 0.022,-1.139 0.022,-1.711c0,-52.098 -32.281,-96.578 -77.897,-114.759l-91.38,0c-45.615,18.182 -77.897,62.662 -77.897,114.76Zm123.586,-70.62c39.002,0 70.621,31.618 70.621,70.621c0,39.003 -31.618,70.621 -70.621,70.621c-39.003,0 -70.621,-31.618 -70.621,-70.621c0,-39.003 31.619,-70.621 70.621,-70.621Z" style="fill:#fcffdc;fill-rule:nonzero;"/><path d="M247.172,247.173c39.002,0 70.621,-31.618 70.621,-70.621c0,-39.003 -31.618,-70.621 -70.621,-70.621c-39.003,0 -70.621,31.618 -70.621,70.621c0,39.003 31.619,70.621 70.621,70.621Zm-0,-105.931c19.501,-0 35.31,15.809 35.31,35.31c-0,19.501 -15.809,35.31 -35.31,35.31c-19.501,-0 -35.31,-15.809 -35.31,-35.31c-0,-19.501 15.809,-35.31 35.31,-35.31Z" style="fill:#fff5a5;fill-rule:nonzero;"/><circle cx="247.172" cy="176.552" r="35.31" style="fill:#ff8700;"/><path d="M413.382,183.865c-11.56,-11.56 -29.138,-13.423 -42.645,-5.602c-2.605,1.508 -5.062,3.372 -7.292,5.602l-129.514,129.514l136.828,136.828l114.759,0c14.626,0 26.483,-11.857 26.483,-26.483l0,-141.241l-73.355,-73.355l-25.264,-25.263Z" style="fill:#d57700;fill-rule:nonzero;"/><path d="M233.931,313.38l-67.721,-67.721c-7.596,-7.596 -17.791,-10.998 -27.722,-10.226c-8.098,0.63 -16.021,4.032 -22.215,10.226l-33.81,33.811l-29.497,29.496l132.414,0c4.875,0 8.828,3.953 8.828,8.828l0,17.655c0,4.875 -3.953,8.828 -8.828,8.828l-141.242,0c-4.875,0 -8.828,-3.953 -8.828,-8.828l0,-8.828l-35.31,35.311l0,61.793c0,2.285 0.289,4.503 0.834,6.618c0.544,2.115 1.343,4.128 2.362,6.005c0.407,0.75 0.851,1.479 1.326,2.184c1.903,2.817 4.335,5.249 7.153,7.153c0.704,0.476 1.433,0.919 2.184,1.326c1.876,1.02 3.89,1.819 6.005,2.362c2.115,0.545 4.333,0.834 6.618,0.834l344.275,0l-136.826,-136.827Zm-110.345,92.69c-0,4.875 -3.953,8.828 -8.828,8.828l-70.62,-0c-4.875,-0 -8.828,-3.953 -8.828,-8.828c-0,-4.875 3.953,-8.828 8.828,-8.828l70.621,-0c4.875,-0 8.827,3.952 8.827,8.828Zm61.793,-26.483l-141.241,-0c-4.875,-0 -8.828,-3.953 -8.828,-8.828c-0,-4.875 3.953,-8.828 8.828,-8.828l141.241,-0c4.875,-0 8.828,3.953 8.828,8.828c-0,4.875 -3.953,8.828 -8.828,8.828Z" style="fill:#ff8700;fill-rule:nonzero;"/><path d="M35.31,317.794l0,17.656c0,4.875 3.953,8.828 8.828,8.828l141.241,-0c4.875,-0 8.828,-3.953 8.828,-8.828l0,-17.655c0,-4.875 -3.953,-8.828 -8.828,-8.828l-141.241,0c-4.875,-0.001 -8.828,3.952 -8.828,8.827Z" style="fill:#f7a831;fill-rule:nonzero;"/><g><path d="M185.379,361.932l-141.241,0c-4.875,0 -8.828,3.953 -8.828,8.828c0,4.875 3.953,8.828 8.828,8.828l141.241,0c4.875,0 8.828,-3.953 8.828,-8.828c0,-4.875 -3.953,-8.828 -8.828,-8.828Z" style="fill:#f7a831;fill-rule:nonzero;"/><path d="M114.759,397.242l-70.621,0c-4.875,0 -8.828,3.953 -8.828,8.828c0,4.875 3.953,8.828 8.828,8.828l70.621,0c4.875,0 8.828,-3.953 8.828,-8.828c-0.001,-4.876 -3.953,-8.828 -8.828,-8.828Z" style="fill:#f7a831;fill-rule:nonzero;"/></g></g></svg>