<?xml version="1.0" encoding="UTF-8" standalone="no"?><!DOCTYPE svg PUBLIC "-//W3C//DTD SVG 1.1//EN" "http://www.w3.org/Graphics/SVG/1.1/DTD/svg11.dtd"><svg width="100%" height="100%" viewBox="0 0 512 512" version="1.1" xmlns="http://www.w3.org/2000/svg" xmlns:xlink="http://www.w3.org/1999/xlink" xml:space="preserve" xmlns:serif="http://www.serif.com/" style="fill-rule:evenodd;clip-rule:evenodd;stroke-linejoin:round;stroke-miterlimit:2;"><g id="Source"><path d="M256,0l-61.811,256l61.811,256c141.385,0 256,-114.615 256,-256c0,-141.385 -114.615,-256 -256,-256Z" style="fill:#3b4145;fill-rule:nonzero;"/><path d="M0,256c0,141.385 114.615,256 256,256l0,-512c-141.385,0 -256,114.615 -256,256Z" style="fill:#525a61;fill-rule:nonzero;"/><path d="M256,30.905l0,450.189c124.316,0 225.095,-100.778 225.095,-225.095c0,-124.317 -100.779,-225.094 -225.095,-225.094Z" style="fill:#def1ff;fill-rule:nonzero;"/><path d="M450.189,256c0,-124.316 -86.941,-225.095 -194.189,-225.095c-124.316,0 -225.095,100.779 -225.095,225.095c0,124.316 100.779,225.095 225.095,225.095c107.248,0 194.189,-100.779 194.189,-225.095Z" style="fill:#fff;fill-rule:nonzero;"/><path d="M256,395.59c-39.479,-0 -71.598,-32.119 -71.598,-71.598l0,-135.984c0,-39.479 32.119,-71.598 71.598,-71.598c39.479,0 71.598,32.119 71.598,71.598c0,11.379 -9.224,20.604 -20.604,20.604c-11.38,0 -20.604,-9.224 -20.604,-20.604c0,-16.758 -13.632,-30.39 -30.39,-30.39c-16.758,0 -30.39,13.632 -30.39,30.39l0,135.984c0,16.758 13.632,30.39 30.39,30.39c16.758,0 30.39,-13.632 30.39,-30.39c0,-11.379 9.224,-20.604 20.604,-20.604c11.38,0 20.604,9.224 20.604,20.604c0,39.479 -32.119,71.598 -71.598,71.598Z" style="fill:#3b4145;fill-rule:nonzero;"/></g><g id="Icon"><path d="M256,0l-61.811,256l61.811,256c141.385,0 256,-114.615 256,-256c0,-141.385 -114.615,-256 -256,-256Z" style="fill:#ff8700;fill-rule:nonzero;"/><path d="M0,256c0,141.385 114.615,256 256,256l0,-512c-141.385,0 -256,114.615 -256,256Z" style="fill:#ff8700;fill-rule:nonzero;"/><path d="M256,30.905l0,450.189c124.316,0 225.095,-100.778 225.095,-225.095c0,-124.317 -100.779,-225.094 -225.095,-225.094Z" style="fill:#d57700;fill-rule:nonzero;"/><path d="M450.189,256c0,-124.316 -86.941,-225.095 -194.189,-225.095c-124.316,0 -225.095,100.779 -225.095,225.095c0,124.316 100.779,225.095 225.095,225.095c107.248,0 194.189,-100.779 194.189,-225.095Z" style="fill:#f4f4f4;fill-rule:nonzero;"/><path d="M256,395.59c-39.479,-0 -71.598,-32.119 -71.598,-71.598l0,-135.984c0,-39.479 32.119,-71.598 71.598,-71.598c39.479,0 71.598,32.119 71.598,71.598c0,11.379 -9.224,20.604 -20.604,20.604c-11.38,0 -20.604,-9.224 -20.604,-20.604c0,-16.758 -13.632,-30.39 -30.39,-30.39c-16.758,0 -30.39,13.632 -30.39,30.39l0,135.984c0,16.758 13.632,30.39 30.39,30.39c16.758,0 30.39,-13.632 30.39,-30.39c0,-11.379 9.224,-20.604 20.604,-20.604c11.38,0 20.604,9.224 20.604,20.604c0,39.479 -32.119,71.598 -71.598,71.598Z" style="fill:#ff8700;fill-rule:nonzero;"/></g></svg>