<?xml version="1.0" encoding="UTF-8" standalone="no"?><!DOCTYPE svg PUBLIC "-//W3C//DTD SVG 1.1//EN" "http://www.w3.org/Graphics/SVG/1.1/DTD/svg11.dtd"><svg width="100%" height="100%" viewBox="0 0 512 512" version="1.1" xmlns="http://www.w3.org/2000/svg" xmlns:xlink="http://www.w3.org/1999/xlink" xml:space="preserve" xmlns:serif="http://www.serif.com/" style="fill-rule:evenodd;clip-rule:evenodd;stroke-linejoin:round;stroke-miterlimit:2;"><g id="Icon"><path d="M396.244,171.966l-69.009,-72.349c-3.34,-3.339 -7.791,-5.009 -12.244,-5.009l-42.295,0l-0,85.149l-33.392,1.669l0,-86.818l-42.295,0c-4.453,0 -8.904,1.67 -12.244,5.009l-69.009,72.347c-2.782,3.34 -4.452,7.235 -4.452,11.687l-0,300.521c-0,15.583 12.243,27.826 27.825,27.826l233.74,-0c15.583,-0 27.825,-12.244 27.825,-27.826l0,-300.52c0.001,-4.452 -1.668,-8.348 -4.45,-11.686Z" style="fill:#ff8700;fill-rule:nonzero;"/><path d="M239.304,186.991c6.122,-2.226 12.8,-3.339 19.479,-3.339c5.009,0 9.461,0.556 13.913,1.669l-0,-168.626c-0,-9.46 -7.235,-16.695 -16.695,-16.695c-9.461,-0 -16.696,7.235 -16.696,16.695l0,170.296l-0.001,0Z" style="fill:#d57700;fill-rule:nonzero;"/><path d="M239.304,181.426c-22.817,7.791 -38.956,29.496 -38.956,55.095c0,32.278 26.157,58.435 58.435,58.435c32.278,-0 58.435,-26.157 58.435,-58.435c-0,-27.27 -18.922,-50.644 -44.522,-56.766c-4.453,-1.113 -8.904,-1.669 -13.913,-1.669c-6.679,0.001 -13.357,1.114 -19.479,3.34Zm19.479,80.139c-13.913,0 -25.043,-11.13 -25.043,-25.043c-0,-13.913 11.13,-25.043 25.043,-25.043c13.913,-0 25.043,11.13 25.043,25.043c0,13.913 -11.13,25.043 -25.043,25.043Z" style="fill:#f7a831;fill-rule:nonzero;"/></g></svg>