<?xml version="1.0" encoding="UTF-8" standalone="no"?><!DOCTYPE svg PUBLIC "-//W3C//DTD SVG 1.1//EN" "http://www.w3.org/Graphics/SVG/1.1/DTD/svg11.dtd"><svg width="100%" height="100%" viewBox="0 0 512 512" version="1.1" xmlns="http://www.w3.org/2000/svg" xmlns:xlink="http://www.w3.org/1999/xlink" xml:space="preserve" xmlns:serif="http://www.serif.com/" style="fill-rule:evenodd;clip-rule:evenodd;stroke-linejoin:round;stroke-miterlimit:2;"><g id="Original"><path d="M335.151,167.967c10.449,10.449 18.808,22.988 25.078,35.527c22.988,48.065 15.673,108.669 -25.078,148.375l-111.804,112.849c-51.2,51.2 -133.747,51.2 -183.902,0c-51.2,-51.2 -51.2,-133.747 0,-183.902l79.412,-79.412c-9.404,31.347 -8.359,64.784 3.135,95.086l-33.437,33.437c-22.988,22.988 -22.988,61.649 0,85.682c24.033,24.033 61.649,24.033 85.682,0l111.804,-111.804c11.494,-11.494 17.763,-27.167 17.763,-42.841c0,-15.674 -6.269,-31.347 -17.763,-42.841c-11.494,-11.494 -27.167,-17.763 -42.841,-17.763l56.424,-56.424c12.539,5.223 24.033,13.582 35.527,24.031Z" style="fill:#ffd15c;fill-rule:nonzero;"/><path d="M167.967,335.151c-10.449,-10.449 -18.808,-22.988 -25.078,-35.527c-22.988,-48.065 -15.673,-108.669 25.078,-148.376l111.804,-112.848c51.2,-51.2 133.747,-51.2 183.902,-0c51.2,51.2 51.2,133.747 0,183.902l-79.412,79.412c9.404,-31.347 8.359,-64.784 -3.135,-95.086l33.437,-33.437c22.988,-22.988 22.988,-61.649 0,-85.682c-24.033,-24.033 -61.649,-24.033 -85.682,-0l-110.759,112.85c-11.494,11.494 -17.763,27.167 -17.763,42.841c0,15.674 6.269,31.347 17.763,42.841c11.494,11.494 27.167,17.763 42.841,17.763l-56.424,56.424c-13.584,-6.269 -25.078,-14.628 -36.572,-25.077Z" style="fill:#ff7058;fill-rule:nonzero;"/></g><g id="Icon"><path d="M335.151,167.967c10.449,10.449 18.808,22.988 25.078,35.527c22.988,48.065 15.673,108.669 -25.078,148.375l-111.804,112.849c-51.2,51.2 -133.747,51.2 -183.902,0c-51.2,-51.2 -51.2,-133.747 0,-183.902l79.412,-79.412c-9.404,31.347 -8.359,64.784 3.135,95.086l-33.437,33.437c-22.988,22.988 -22.988,61.649 0,85.682c24.033,24.033 61.649,24.033 85.682,0l111.804,-111.804c11.494,-11.494 17.763,-27.167 17.763,-42.841c0,-15.674 -6.269,-31.347 -17.763,-42.841c-11.494,-11.494 -27.167,-17.763 -42.841,-17.763l56.424,-56.424c12.539,5.223 24.033,13.582 35.527,24.031Z" style="fill:#ff8700;fill-rule:nonzero;"/><path d="M167.967,335.151c-10.449,-10.449 -18.808,-22.988 -25.078,-35.527c-22.988,-48.065 -15.673,-108.669 25.078,-148.376l111.804,-112.848c51.2,-51.2 133.747,-51.2 183.902,-0c51.2,51.2 51.2,133.747 0,183.902l-79.412,79.412c9.404,-31.347 8.359,-64.784 -3.135,-95.086l33.437,-33.437c22.988,-22.988 22.988,-61.649 0,-85.682c-24.033,-24.033 -61.649,-24.033 -85.682,-0l-110.759,112.85c-11.494,11.494 -17.763,27.167 -17.763,42.841c0,15.674 6.269,31.347 17.763,42.841c11.494,11.494 27.167,17.763 42.841,17.763l-56.424,56.424c-13.584,-6.269 -25.078,-14.628 -36.572,-25.077Z" style="fill:#d57700;fill-rule:nonzero;"/></g></svg>