<?xml version="1.0" encoding="UTF-8" standalone="no"?><!DOCTYPE svg PUBLIC "-//W3C//DTD SVG 1.1//EN" "http://www.w3.org/Graphics/SVG/1.1/DTD/svg11.dtd"><svg width="100%" height="100%" viewBox="0 0 512 512" version="1.1" xmlns="http://www.w3.org/2000/svg" xmlns:xlink="http://www.w3.org/1999/xlink" xml:space="preserve" xmlns:serif="http://www.serif.com/" style="fill-rule:evenodd;clip-rule:evenodd;stroke-linejoin:round;stroke-miterlimit:2;"><g id="Icon"><rect x="0" y="0" width="512" height="512" style="fill:#f4f4f4;"/><rect x="44.138" y="97.103" width="361.931" height="52.966" style="fill:#ff8700;"/><rect x="406.069" y="97.103" width="61.793" height="52.966" style="fill:#d57700;"/><path d="M335.448,247.172l-282.482,0c-4.873,0 -8.828,-3.954 -8.828,-8.827c-0,-4.873 3.955,-8.828 8.828,-8.828l282.482,0c4.873,0 8.828,3.955 8.828,8.828c-0,4.873 -3.955,8.827 -8.828,8.827Z" style="fill:#bdc3c7;fill-rule:nonzero;"/><path d="M335.448,282.483l-282.482,-0c-4.873,-0 -8.828,-3.955 -8.828,-8.828c-0,-4.873 3.955,-8.827 8.828,-8.827l282.482,-0c4.873,-0 8.828,3.954 8.828,8.827c-0,4.873 -3.955,8.828 -8.828,8.828Z" style="fill:#bdc3c7;fill-rule:nonzero;"/><path d="M247.172,211.862l-194.206,0c-4.873,0 -8.828,-3.955 -8.828,-8.828c-0,-4.872 3.955,-8.827 8.828,-8.827l194.206,-0c4.873,-0 8.828,3.955 8.828,8.827c0,4.873 -3.955,8.828 -8.828,8.828Z" style="fill:#ff8700;fill-rule:nonzero;"/><path d="M335.448,379.586l-282.482,0c-4.873,0 -8.828,-3.955 -8.828,-8.827c-0,-4.873 3.955,-8.828 8.828,-8.828l282.482,0c4.873,0 8.828,3.955 8.828,8.828c-0,4.872 -3.955,8.827 -8.828,8.827Z" style="fill:#bdc3c7;fill-rule:nonzero;"/><path d="M335.448,414.897l-282.482,-0c-4.873,-0 -8.828,-3.955 -8.828,-8.828c-0,-4.873 3.955,-8.828 8.828,-8.828l282.482,0c4.873,0 8.828,3.955 8.828,8.828c-0,4.873 -3.955,8.828 -8.828,8.828Z" style="fill:#bdc3c7;fill-rule:nonzero;"/><path d="M247.172,344.276l-194.206,-0c-4.873,-0 -8.828,-3.955 -8.828,-8.828c-0,-4.873 3.955,-8.827 8.828,-8.827l194.206,-0c4.873,-0 8.828,3.954 8.828,8.827c0,4.873 -3.955,8.828 -8.828,8.828Z" style="fill:#ff8700;fill-rule:nonzero;"/></g></svg>