<?xml version="1.0" encoding="UTF-8" standalone="no"?><!DOCTYPE svg PUBLIC "-//W3C//DTD SVG 1.1//EN" "http://www.w3.org/Graphics/SVG/1.1/DTD/svg11.dtd"><svg width="100%" height="100%" viewBox="0 0 512 512" version="1.1" xmlns="http://www.w3.org/2000/svg" xmlns:xlink="http://www.w3.org/1999/xlink" xml:space="preserve" xmlns:serif="http://www.serif.com/" style="fill-rule:evenodd;clip-rule:evenodd;stroke-linejoin:round;stroke-miterlimit:2;"><g id="Icon"><rect x="0" y="0" width="512" height="512" style="fill:#f4f4f4;"/><rect x="0" y="0" width="512" height="105.931" style="fill:#515151;"/><circle cx="52.966" cy="52.966" r="26.483" style="fill:#dc3545;"/><circle cx="132.414" cy="52.966" r="26.483" style="fill:#ffc800;"/><circle cx="211.862" cy="52.966" r="26.483" style="fill:#3db900;"/><rect x="44.138" y="150.069" width="423.724" height="317.793" style="fill:#ff8700;"/><g><path d="M105.931,317.793l282.483,0c4.873,0 8.827,-3.955 8.827,-8.827c0,-4.873 -3.954,-8.828 -8.827,-8.828l-282.483,-0c-4.873,-0 -8.828,3.955 -8.828,8.828c0,4.872 3.955,8.827 8.828,8.827Z" style="fill:#fff;fill-rule:nonzero;"/><path d="M388.414,353.103l-282.483,0c-4.873,0 -8.828,3.955 -8.828,8.828c0,4.873 3.955,8.828 8.828,8.828l282.483,-0c4.873,-0 8.827,-3.955 8.827,-8.828c0,-4.873 -3.954,-8.828 -8.827,-8.828Z" style="fill:#fff;fill-rule:nonzero;"/><path d="M105.931,264.828l79.448,-0c4.873,-0 8.828,-3.955 8.828,-8.828c-0,-4.873 -3.955,-8.828 -8.828,-8.828l-79.448,0c-4.873,0 -8.828,3.955 -8.828,8.828c0,4.873 3.955,8.828 8.828,8.828Z" style="fill:#fff;fill-rule:nonzero;"/><path d="M256,264.828l26.483,-0c4.873,-0 8.827,-3.955 8.827,-8.828c0,-4.873 -3.954,-8.828 -8.827,-8.828l-26.483,0c-4.873,0 -8.828,3.955 -8.828,8.828c0,4.873 3.955,8.828 8.828,8.828Z" style="fill:#fff;fill-rule:nonzero;"/><path d="M220.69,264.828c2.295,-0 4.59,-0.971 6.267,-2.56c1.589,-1.678 2.56,-3.973 2.56,-6.268c0,-2.295 -0.971,-4.59 -2.56,-6.268c-3.354,-3.266 -9.18,-3.266 -12.535,0c-1.589,1.678 -2.56,3.973 -2.56,6.268c0,2.295 0.971,4.59 2.56,6.268c1.677,1.589 3.972,2.56 6.268,2.56Z" style="fill:#fff;fill-rule:nonzero;"/></g></g></svg>