<?xml version="1.0" encoding="UTF-8" standalone="no"?><!DOCTYPE svg PUBLIC "-//W3C//DTD SVG 1.1//EN" "http://www.w3.org/Graphics/SVG/1.1/DTD/svg11.dtd"><svg width="100%" height="100%" viewBox="0 0 512 512" version="1.1" xmlns="http://www.w3.org/2000/svg" xmlns:xlink="http://www.w3.org/1999/xlink" xml:space="preserve" xmlns:serif="http://www.serif.com/" style="fill-rule:evenodd;clip-rule:evenodd;stroke-linejoin:round;stroke-miterlimit:2;"><g id="Icon"><rect x="0" y="0" width="512" height="512" style="fill:#f4f4f4;"/><circle cx="123.586" cy="273.655" r="44.138" style="fill:#ff8700;"/><rect x="0" y="0" width="512" height="105.931" style="fill:#b9b9b9;"/><path d="M482.931,32.724l-12.482,-12.482l-20.242,20.241l-20.242,-20.241l-12.482,12.482l20.242,20.242l-20.242,20.241l12.482,12.482l20.242,-20.241l20.242,20.241l12.482,-12.482l-20.242,-20.241l20.242,-20.242Z" style="fill:#515151;fill-rule:nonzero;"/><g><path d="M211.862,291.31l194.207,0c4.873,0 8.828,-3.946 8.828,-8.827c-0,-4.882 -3.955,-8.828 -8.828,-8.828l-194.207,0c-4.873,0 -8.828,3.946 -8.828,8.828c0,4.881 3.955,8.827 8.828,8.827Z" style="fill:#b9b9b9;fill-rule:nonzero;"/><path d="M406.069,326.621l-194.207,-0c-4.873,-0 -8.828,3.946 -8.828,8.827c0,4.882 3.955,8.828 8.828,8.828l194.207,-0c4.873,-0 8.828,-3.946 8.828,-8.828c-0,-4.881 -3.955,-8.827 -8.828,-8.827Z" style="fill:#b9b9b9;fill-rule:nonzero;"/><path d="M211.862,238.345l79.448,-0c4.873,-0 8.828,-3.946 8.828,-8.828c-0,-4.881 -3.955,-8.827 -8.828,-8.827l-79.448,-0c-4.873,-0 -8.828,3.946 -8.828,8.827c0,4.882 3.955,8.828 8.828,8.828Z" style="fill:#b9b9b9;fill-rule:nonzero;"/><path d="M326.621,238.345c2.295,-0 4.59,-0.971 6.267,-2.56c1.589,-1.677 2.56,-3.973 2.56,-6.268c0,-2.295 -0.971,-4.599 -2.56,-6.267c-3.266,-3.267 -9.269,-3.267 -12.535,-0c-1.589,1.668 -2.56,3.972 -2.56,6.267c0,2.295 0.971,4.591 2.56,6.268c1.677,1.589 3.973,2.56 6.268,2.56Z" style="fill:#b9b9b9;fill-rule:nonzero;"/></g></g></svg>