<?xml version="1.0" encoding="UTF-8" standalone="no"?><!DOCTYPE svg PUBLIC "-//W3C//DTD SVG 1.1//EN" "http://www.w3.org/Graphics/SVG/1.1/DTD/svg11.dtd"><svg width="100%" height="100%" viewBox="0 0 503 503" version="1.1" xmlns="http://www.w3.org/2000/svg" xmlns:xlink="http://www.w3.org/1999/xlink" xml:space="preserve" xmlns:serif="http://www.serif.com/" style="fill-rule:evenodd;clip-rule:evenodd;stroke-linejoin:round;stroke-miterlimit:2;"><g id="Original"><path d="M501.812,481.176c0,6.269 -2.09,11.494 -6.269,15.673c-4.18,3.135 -8.359,5.224 -14.629,5.224l-459.755,0c-5.224,0 -10.449,-2.09 -14.629,-5.224c-4.18,-4.18 -6.269,-9.404 -6.269,-15.673l0,-306.156l501.551,0l0,306.156Z" style="fill:#ffd15c;fill-rule:nonzero;"/><path d="M495.543,496.849c-4.18,3.135 -8.359,5.224 -14.629,5.224l-459.755,0c-5.224,0 -10.449,-2.09 -14.629,-5.224l244.506,-210.024l244.507,210.024Z" style="fill:#f8b64c;fill-rule:nonzero;"/><path d="M501.812,175.02l-71.053,51.2l-166.139,119.119c-8.359,6.269 -19.853,6.269 -28.212,-0l-165.094,-119.119l-71.053,-51.2l71.053,-51.2l154.645,-110.759l11.494,-8.359c8.359,-6.269 19.853,-6.269 28.212,-0l11.494,8.359l74.188,53.29l36.571,26.122l42.841,31.347l71.053,51.2Z" style="fill:#40596b;fill-rule:nonzero;"/><path d="M430.759,77.845l0,148.375l-166.139,119.119c-8.359,6.269 -19.853,6.269 -28.212,0l-165.094,-119.119l-0,-192.261c-0,-11.494 9.404,-20.898 20.898,-20.898l272.718,0l65.829,64.784Z" style="fill:#f2f2f2;fill-rule:nonzero;"/><path d="M365.975,61.127c0,9.404 7.314,16.718 16.718,16.718l48.065,0l-64.784,-64.784l0.001,48.066Z" style="fill:#cdd6e0;fill-rule:nonzero;"/><path d="M312.686,223.086l16.718,0c-5.224,11.494 -13.584,19.853 -25.078,26.122c-12.539,7.314 -28.212,10.449 -47.02,10.449c-17.763,0 -33.437,-3.135 -45.976,-9.404c-12.539,-6.269 -22.988,-14.629 -29.257,-27.167c-6.269,-11.494 -9.404,-25.078 -9.404,-38.661c0,-15.673 3.135,-29.257 10.449,-42.841c7.314,-13.584 16.718,-22.988 29.257,-29.257c12.539,-6.269 27.167,-9.404 42.841,-9.404c13.584,0 26.122,3.135 36.571,8.359c10.449,5.224 18.808,12.539 24.033,22.988c5.224,9.404 8.359,20.898 8.359,32.392c0,13.584 -4.18,26.122 -12.539,37.616c-10.449,14.629 -24.033,20.898 -40.751,20.898c-4.18,0 -8.359,-1.045 -10.449,-2.09c-2.09,-2.09 -4.18,-4.18 -4.18,-7.314c-6.269,6.269 -13.584,9.404 -21.943,9.404c-9.404,0 -16.718,-3.135 -21.943,-9.404c-6.269,-6.269 -9.404,-14.629 -9.404,-25.078c0,-12.539 3.135,-24.033 10.449,-35.527c8.359,-12.539 19.853,-18.808 33.437,-18.808c9.404,0 16.718,4.18 21.943,11.494l2.09,-9.404l21.943,0l-12.539,58.514c-1.045,4.18 -1.045,6.269 -1.045,7.314c0,1.045 0,2.09 1.045,3.135c1.045,1.045 1.045,1.045 2.09,1.045c2.09,0 6.269,-2.09 10.449,-5.224c5.224,-4.18 10.449,-9.404 13.584,-16.718c3.135,-7.314 5.224,-14.629 5.224,-21.943c0,-13.584 -5.224,-25.078 -14.629,-33.437c-9.404,-9.404 -22.988,-13.584 -40.751,-13.584c-14.629,0 -27.167,3.135 -37.616,9.404c-10.449,6.269 -17.763,14.629 -22.988,25.078c-5.225,10.449 -7.314,21.943 -7.314,34.482c0,11.494 3.135,21.943 8.359,31.347c6.269,9.404 13.584,16.718 24.033,20.898c10.449,4.18 21.943,6.269 35.527,6.269c12.539,0 24.033,-2.09 33.437,-5.224c9.404,-4.181 16.718,-9.405 22.988,-16.719Zm-88.817,-33.437c-0,7.314 1.045,11.494 4.18,15.673c3.135,3.135 6.269,5.224 10.449,5.224c3.135,-0 6.269,-1.045 8.359,-2.09c2.09,-1.045 4.18,-3.135 6.269,-5.224c3.135,-3.135 5.225,-8.359 7.314,-14.629c2.09,-6.269 3.135,-12.539 3.135,-17.763c0,-6.269 -1.045,-10.449 -4.18,-14.629c-3.135,-3.135 -6.269,-5.224 -10.449,-5.224c-4.18,-0 -9.404,2.09 -12.539,5.224c-4.18,3.135 -7.314,8.359 -9.404,15.673c-2.089,6.271 -3.134,12.54 -3.134,17.765Z" style="fill:#ff7058;fill-rule:nonzero;"/></g><g id="Icon"><path d="M501.812,481.176c0,6.269 -2.09,11.494 -6.269,15.673c-4.18,3.135 -8.359,5.224 -14.629,5.224l-459.755,0c-5.224,0 -10.449,-2.09 -14.629,-5.224c-4.18,-4.18 -6.269,-9.404 -6.269,-15.673l0,-306.156l501.551,0l0,306.156Z" style="fill:#f49700;fill-rule:nonzero;"/><path d="M495.543,496.849c-4.18,3.135 -8.359,5.224 -14.629,5.224l-459.755,0c-5.224,0 -10.449,-2.09 -14.629,-5.224l244.506,-210.024l244.507,210.024Z" style="fill:#ff8700;fill-rule:nonzero;"/><path d="M501.812,175.02l-71.053,51.2l-166.139,119.119c-8.359,6.269 -19.853,6.269 -28.212,-0l-165.094,-119.119l-71.053,-51.2l71.053,-51.2l154.645,-110.759l11.494,-8.359c8.359,-6.269 19.853,-6.269 28.212,-0l11.494,8.359l74.188,53.29l36.571,26.122l42.841,31.347l71.053,51.2Z" style="fill:#f49700;fill-rule:nonzero;"/><path d="M430.759,77.845l0,148.375l-166.139,119.119c-8.359,6.269 -19.853,6.269 -28.212,0l-165.094,-119.119l-0,-192.261c-0,-11.494 9.404,-20.898 20.898,-20.898l272.718,0l65.829,64.784Z" style="fill:#f4f4f4;fill-rule:nonzero;"/><path d="M365.975,61.127c0,9.404 7.314,16.718 16.718,16.718l48.065,0l-64.784,-64.784l0.001,48.066Z" style="fill:#b9b9b9;fill-rule:nonzero;"/><path d="M312.686,223.086l16.718,0c-5.224,11.494 -13.584,19.853 -25.078,26.122c-12.539,7.314 -28.212,10.449 -47.02,10.449c-17.763,0 -33.437,-3.135 -45.976,-9.404c-12.539,-6.269 -22.988,-14.629 -29.257,-27.167c-6.269,-11.494 -9.404,-25.078 -9.404,-38.661c0,-15.673 3.135,-29.257 10.449,-42.841c7.314,-13.584 16.718,-22.988 29.257,-29.257c12.539,-6.269 27.167,-9.404 42.841,-9.404c13.584,0 26.122,3.135 36.571,8.359c10.449,5.224 18.808,12.539 24.033,22.988c5.224,9.404 8.359,20.898 8.359,32.392c0,13.584 -4.18,26.122 -12.539,37.616c-10.449,14.629 -24.033,20.898 -40.751,20.898c-4.18,0 -8.359,-1.045 -10.449,-2.09c-2.09,-2.09 -4.18,-4.18 -4.18,-7.314c-6.269,6.269 -13.584,9.404 -21.943,9.404c-9.404,0 -16.718,-3.135 -21.943,-9.404c-6.269,-6.269 -9.404,-14.629 -9.404,-25.078c0,-12.539 3.135,-24.033 10.449,-35.527c8.359,-12.539 19.853,-18.808 33.437,-18.808c9.404,0 16.718,4.18 21.943,11.494l2.09,-9.404l21.943,0l-12.539,58.514c-1.045,4.18 -1.045,6.269 -1.045,7.314c0,1.045 0,2.09 1.045,3.135c1.045,1.045 1.045,1.045 2.09,1.045c2.09,0 6.269,-2.09 10.449,-5.224c5.224,-4.18 10.449,-9.404 13.584,-16.718c3.135,-7.314 5.224,-14.629 5.224,-21.943c0,-13.584 -5.224,-25.078 -14.629,-33.437c-9.404,-9.404 -22.988,-13.584 -40.751,-13.584c-14.629,0 -27.167,3.135 -37.616,9.404c-10.449,6.269 -17.763,14.629 -22.988,25.078c-5.225,10.449 -7.314,21.943 -7.314,34.482c0,11.494 3.135,21.943 8.359,31.347c6.269,9.404 13.584,16.718 24.033,20.898c10.449,4.18 21.943,6.269 35.527,6.269c12.539,0 24.033,-2.09 33.437,-5.224c9.404,-4.181 16.718,-9.405 22.988,-16.719Zm-88.817,-33.437c-0,7.314 1.045,11.494 4.18,15.673c3.135,3.135 6.269,5.224 10.449,5.224c3.135,-0 6.269,-1.045 8.359,-2.09c2.09,-1.045 4.18,-3.135 6.269,-5.224c3.135,-3.135 5.225,-8.359 7.314,-14.629c2.09,-6.269 3.135,-12.539 3.135,-17.763c0,-6.269 -1.045,-10.449 -4.18,-14.629c-3.135,-3.135 -6.269,-5.224 -10.449,-5.224c-4.18,-0 -9.404,2.09 -12.539,5.224c-4.18,3.135 -7.314,8.359 -9.404,15.673c-2.089,6.271 -3.134,12.54 -3.134,17.765Z" style="fill:#f49700;fill-rule:nonzero;"/></g></svg>