<?xml version="1.0" encoding="UTF-8" standalone="no"?><!DOCTYPE svg PUBLIC "-//W3C//DTD SVG 1.1//EN" "http://www.w3.org/Graphics/SVG/1.1/DTD/svg11.dtd"><svg width="100%" height="100%" viewBox="0 0 512 512" version="1.1" xmlns="http://www.w3.org/2000/svg" xmlns:xlink="http://www.w3.org/1999/xlink" xml:space="preserve" xmlns:serif="http://www.serif.com/" style="fill-rule:evenodd;clip-rule:evenodd;stroke-linejoin:round;stroke-miterlimit:2;"><g id="Icon"><path d="M313.9,291.551l-64.799,37.5l-65.102,37.5l-15,-26.1l26.1,-15l-75,-129.901l-39,22.5l15,26.1l-26.099,15l-60,-104.101l104.101,-60l103.798,-60l60,104.101l-25.799,15l-15,-26.1l-39,22.5l75,129.901l25.8,-15l15,26.1Z" style="fill:#ff8700;fill-rule:nonzero;"/><path d="M512,401.951l-30,0c0,-41.4 -33.6,-75 -75,-75c-13.5,0 -27.001,3.6 -38.401,10.499l-85.598,50.7l-123.001,73.801c-16.199,9.899 -36.099,15 -55,15c-57.9,0 -105,-47.1 -105,-105l30,0c0,41.4 33.6,75 75,75c13.5,0 28.001,-3.6 39.401,-10.501l123.898,-74.099l84.701,-50.4c16.199,-9.901 35.099,-15 54,-15c57.9,0 105,47.1 105,105Z" style="fill:#ff8700;fill-rule:nonzero;"/><path d="M313.9,291.551l-64.799,37.5l-135,-234.002l103.798,-60l60,104.101l-25.799,15l-15,-26.1l-39,22.5l75,129.901l25.8,-15l15,26.1Z" style="fill:#d57700;fill-rule:nonzero;"/><path d="M512,401.951l-30,0c0,-41.4 -33.6,-75 -75,-75c-13.5,0 -27.001,3.6 -38.401,10.499l-85.598,50.7l-14.702,-25.8l84.701,-50.4c16.199,-9.901 35.099,-15 54,-15c57.9,0.001 105,47.101 105,105.001Z" style="fill:#d57700;fill-rule:nonzero;"/></g></svg>