<?xml version="1.0" encoding="UTF-8" standalone="no"?><!DOCTYPE svg PUBLIC "-//W3C//DTD SVG 1.1//EN" "http://www.w3.org/Graphics/SVG/1.1/DTD/svg11.dtd"><svg width="100%" height="100%" viewBox="0 0 512 512" version="1.1" xmlns="http://www.w3.org/2000/svg" xmlns:xlink="http://www.w3.org/1999/xlink" xml:space="preserve" xmlns:serif="http://www.serif.com/" style="fill-rule:evenodd;clip-rule:evenodd;stroke-linejoin:round;stroke-miterlimit:2;"><g id="Icon"><path d="M458.667,0l-316.8,0l-0,512l316.8,0c11.733,0 21.333,-9.6 21.333,-21.333l-0,-469.334c-0,-11.733 -9.6,-21.333 -21.333,-21.333Z" style="fill:#f4f4f4;fill-rule:nonzero;"/><rect x="141.867" y="0" width="12.8" height="512" style="fill:#f2f2f2;"/><path d="M46.933,0c-11.733,0 -21.333,9.6 -21.333,21.333l0,469.333c0,11.734 9.6,21.334 21.333,21.334l94.933,0l0,-512l-94.933,0Z" style="fill:#b9b9b9;fill-rule:nonzero;"/><circle cx="75.733" cy="82.133" r="23.467" style="fill:#f4f4f4;"/><path d="M61.867,96l-48,0c-7.467,0 -13.867,-6.4 -13.867,-13.867c-0,-7.467 6.4,-13.867 13.867,-13.867l48,0c7.467,0 13.867,6.4 13.867,13.867c-0.001,7.467 -6.401,13.867 -13.867,13.867Z" style="fill:#8c8c8c;fill-rule:nonzero;"/><circle cx="75.733" cy="198.4" r="23.467" style="fill:#f4f4f4;"/><path d="M61.867,212.267l-48,0c-7.467,0 -13.867,-6.4 -13.867,-13.867c-0,-7.467 6.4,-13.867 13.867,-13.867l48,0c7.467,0 13.867,6.4 13.867,13.867c-0.001,7.467 -6.401,13.867 -13.867,13.867Z" style="fill:#8c8c8c;fill-rule:nonzero;"/><circle cx="75.733" cy="313.6" r="23.467" style="fill:#f4f4f4;"/><path d="M61.867,327.467l-48,0c-7.467,0 -13.867,-6.4 -13.867,-13.867c-0,-7.467 6.4,-13.867 13.867,-13.867l48,0c7.467,0 13.867,6.4 13.867,13.867c-0.001,7.467 -6.401,13.867 -13.867,13.867Z" style="fill:#8c8c8c;fill-rule:nonzero;"/><circle cx="75.733" cy="429.867" r="23.467" style="fill:#f4f4f4;"/><path d="M61.867,443.733l-48,0c-7.467,0 -13.867,-6.4 -13.867,-13.866c-0,-7.467 6.4,-13.867 13.867,-13.867l48,0c7.467,0 13.867,6.4 13.867,13.867c-0.001,7.466 -6.401,13.866 -13.867,13.866Z" style="fill:#8c8c8c;fill-rule:nonzero;"/><path d="M501.333,124.8l-21.333,0l0,-76.8l21.333,0c6.4,0 10.667,4.267 10.667,10.667l-0,55.467c0,6.399 -4.267,10.666 -10.667,10.666Z" style="fill:#ff8700;fill-rule:nonzero;"/><path d="M501.333,183.467l-21.333,0l0,-76.8l21.333,0c6.4,0 10.667,4.267 10.667,10.667l-0,55.466c0,6.4 -4.267,10.667 -10.667,10.667Z" style="fill:#f49700;fill-rule:nonzero;"/><path d="M501.333,242.133l-21.333,0l0,-76.8l21.333,0c6.4,0 10.667,4.267 10.667,10.667l-0,55.467c0,6.4 -4.267,10.666 -10.667,10.666Z" style="fill:#f7a831;fill-rule:nonzero;"/><path d="M359.467,298.667c-3.2,-3.2 -8.533,-4.267 -12.8,-2.133c-5.333,2.133 -11.733,6.4 -19.2,13.867c-8.533,4.267 -19.2,2.133 -24.533,-5.333c-9.6,-11.733 -29.867,-51.2 -34.133,-66.133c-2.133,-9.6 2.133,-19.2 10.667,-23.467c10.667,-2.133 17.067,-5.333 22.4,-7.467c4.267,-2.133 6.4,-7.467 5.333,-11.733l-11.734,-52.268c-1.067,-4.267 -4.267,-7.467 -8.533,-8.533c-13.867,-2.133 -21.333,-2.133 -25.6,-1.067c-3.2,1.067 -5.333,3.2 -8.533,5.333c-24.533,20.267 -28.8,44.8 -28.8,44.8c-8.533,72.533 32,152.533 96,187.733c0,-0 21.333,10.667 53.333,3.2c3.2,-1.067 6.4,-2.133 9.6,-3.2c4.267,-3.2 8.533,-8.533 13.867,-21.333c2.133,-4.267 1.067,-8.533 -2.133,-11.733l-35.201,-40.533Z" style="fill:#f49700;fill-rule:nonzero;"/></g></svg>