<?xml version="1.0" encoding="UTF-8" standalone="no"?><!DOCTYPE svg PUBLIC "-//W3C//DTD SVG 1.1//EN" "http://www.w3.org/Graphics/SVG/1.1/DTD/svg11.dtd"><svg width="100%" height="100%" viewBox="0 0 512 512" version="1.1" xmlns="http://www.w3.org/2000/svg" xmlns:xlink="http://www.w3.org/1999/xlink" xml:space="preserve" xmlns:serif="http://www.serif.com/" style="fill-rule:evenodd;clip-rule:evenodd;stroke-linejoin:round;stroke-miterlimit:2;"><g id="Icon"><path d="M47.312,0c-11.689,0 -21.262,9.573 -21.262,21.363l0,469.274c0,11.79 9.573,21.363 21.363,21.363l94.318,-0l0,-512l-94.419,0Z" style="fill:#ff8700;fill-rule:nonzero;"/><path d="M141.63,0l0,511.899l289.707,0c11.79,0 21.363,-9.573 21.363,-21.362l-0,-469.174c-0,-11.79 -9.573,-21.363 -21.363,-21.363l-289.707,0Z" style="fill:#f4f4f4;fill-rule:nonzero;"/><path d="M474.163,46.051l-21.564,-0l0,82.327l21.564,-0c6.349,-0 11.387,-5.038 11.387,-11.387l0,-59.553c0,-6.248 -5.038,-11.387 -11.387,-11.387Z" style="fill:#f7a831;fill-rule:nonzero;"/><path d="M474.163,135.432l-21.564,-0l0,82.327l21.564,-0c6.349,-0 11.387,-5.139 11.387,-11.387l0,-59.654c0,-6.248 -5.038,-11.286 -11.387,-11.286Z" style="fill:#b9b9b9;fill-rule:nonzero;"/><path d="M474.163,224.712l-21.564,-0l0,82.327l21.564,-0c6.349,-0 11.387,-5.039 11.387,-11.387l0,-59.654c0,-6.147 -5.038,-11.286 -11.387,-11.286Z" style="fill:#f7a831;fill-rule:nonzero;"/><rect x="452.599" y="46.051" width="11.387" height="82.327" style="fill:#ff8700;"/><rect x="452.599" y="135.432" width="11.387" height="82.327" style="fill:#8c8c8c;"/><rect x="452.599" y="224.712" width="11.387" height="82.327" style="fill:#ff8700;"/><g><rect x="185.767" y="415.969" width="222.797" height="26.603" style="fill:#f49700;"/><rect x="185.767" y="348.958" width="222.797" height="26.603" style="fill:#f49700;"/><rect x="185.767" y="282.048" width="222.797" height="26.603" style="fill:#f49700;"/></g></g></svg>