<?xml version="1.0" encoding="UTF-8" standalone="no"?><!DOCTYPE svg PUBLIC "-//W3C//DTD SVG 1.1//EN" "http://www.w3.org/Graphics/SVG/1.1/DTD/svg11.dtd"><svg width="100%" height="100%" viewBox="0 0 512 512" version="1.1" xmlns="http://www.w3.org/2000/svg" xmlns:xlink="http://www.w3.org/1999/xlink" xml:space="preserve" xmlns:serif="http://www.serif.com/" style="fill-rule:evenodd;clip-rule:evenodd;stroke-linejoin:round;stroke-miterlimit:2;"><g id="Icon"><path id="Shape" d="M432.552,397.241l-353.104,0l-44.138,61.793l0,26.483c0,14.626 11.857,26.483 26.483,26.483l388.414,0c14.626,0 26.483,-11.857 26.483,-26.483l-0,-26.483l-44.138,-61.793Z" style="fill:#ff8700;fill-rule:nonzero;"/><path id="Shape1" serif:id="Shape" d="M432.552,211.862l-0,185.379l-176.552,17.656l-176.552,-17.656l0,-185.379c0.029,-9.739 7.917,-17.626 17.655,-17.655l317.794,-0c9.738,0.029 17.626,7.916 17.655,17.655Z" style="fill:#ff8700;fill-rule:nonzero;"/><path id="Shape2" serif:id="Shape" d="M418.251,194.56c-65.942,2.648 -338.803,24.188 -338.803,202.681l0,-185.379c0.029,-9.739 7.917,-17.626 17.655,-17.655l317.794,-0c1.128,-0.018 2.254,0.1 3.354,0.353Z" style="fill:#d57700;fill-rule:nonzero;"/><path id="Shape3" serif:id="Shape" d="M476.69,459.034l-141.242,0l-8.827,-26.482l-141.242,-0l-8.827,26.482l-141.242,0l44.138,-61.793l353.104,0l44.138,61.793Z" style="fill:#d57700;fill-rule:nonzero;"/><path id="Shape4" serif:id="Shape" d="M335.448,459.034l-17.655,17.656l-123.586,-0l-17.655,-17.656l8.827,-26.482l141.242,-0l8.827,26.482Z" style="fill:#f7a831;fill-rule:nonzero;"/><path id="Shape5" serif:id="Shape" d="M220.69,218.483l-0,81.655l-71.857,-0l-43.961,-105.931l-33.81,-81.655c-0.906,-2.165 -0.913,-4.602 -0.018,-6.772c0.894,-2.17 2.616,-3.895 4.785,-4.792l73.445,-30.367c4.51,-1.846 9.665,0.279 11.565,4.767l6.709,16.331l6.709,16.242l6.797,16.331l3.354,8.122l3.443,8.209l6.709,16.331l6.709,16.243l10.24,24.541l9.181,20.745Z" style="fill:#f0c419;fill-rule:nonzero;"/><g><path id="Shape6" serif:id="Shape" d="M174.257,107.961l-40.696,16.949c-1.099,0.418 -2.266,0.628 -3.442,0.618c-4.176,-0.049 -7.746,-3.017 -8.556,-7.113c-0.811,-4.096 1.359,-8.2 5.201,-9.836l40.784,-16.86l6.709,16.242Z" style="fill:#b19046;fill-rule:nonzero;"/><path id="Shape7" serif:id="Shape" d="M187.851,140.623l-24.541,10.152c-1.066,0.425 -2.206,0.635 -3.354,0.618c-4.175,-0.049 -7.745,-3.017 -8.556,-7.113c-0.811,-4.096 1.36,-8.2 5.201,-9.836l24.453,-10.152l3.354,8.122l3.443,8.209Z" style="fill:#b19046;fill-rule:nonzero;"/><path id="Shape8" serif:id="Shape" d="M201.269,173.197l-40.695,16.949c-1.071,0.41 -2.208,0.62 -3.355,0.618c-4.191,-0.008 -7.799,-2.962 -8.634,-7.07c-0.834,-4.108 1.335,-8.236 5.192,-9.879l40.783,-16.861l6.709,16.243Z" style="fill:#b19046;fill-rule:nonzero;"/></g><path id="Shape9" serif:id="Shape" d="M291.487,97.103l-0.177,157.485l0,45.55l-70.62,-0l-0,-81.655l0.088,-121.38c4.364,12.152 14.164,21.56 26.483,25.424c2.854,0.732 5.792,1.088 8.739,1.059c3.011,0.044 6.014,-0.342 8.916,-1.147c12.281,-3.877 22.066,-13.238 26.483,-25.336l0.088,0Z" style="fill:#e64c3c;fill-rule:nonzero;"/><path id="Shape10" serif:id="Shape" d="M291.399,97.103c-0,0 -8.916,26.483 -35.399,26.483c-26.483,0 -35.222,-26.483 -35.222,-26.483l11.829,-43.608l0.088,0c6.868,4.9 14.973,7.775 23.393,8.298c8.421,-0.523 16.525,-3.398 23.393,-8.298l11.918,43.608Z" style="fill:#fdd7ad;fill-rule:nonzero;"/><path id="Shape11" serif:id="Shape" d="M279.481,53.495c-6.868,4.9 -14.972,7.775 -23.393,8.298c-8.42,-0.523 -16.525,-3.398 -23.393,-8.298l-0.088,0l12.27,-45.021c1.403,-5.021 5.987,-8.486 11.201,-8.465c5.213,0.02 9.77,3.522 11.133,8.554l12.27,44.932Z" style="fill:#393f4a;fill-rule:nonzero;"/><path id="Shape12" serif:id="Shape" d="M264.828,203.034l-0,97.104l-17.656,-0l0,-97.104c0,-4.875 3.953,-8.827 8.828,-8.827c4.875,-0 8.828,3.952 8.828,8.827Z" style="fill:#c03a2b;fill-rule:nonzero;"/><path id="Shape13" serif:id="Shape" d="M264.916,122.439l-0.088,36.458c-0,4.875 -3.953,8.827 -8.828,8.827c-4.875,0 -8.828,-3.952 -8.828,-8.827l0.089,-36.37c2.854,0.732 5.792,1.088 8.739,1.059c3.011,0.044 6.014,-0.342 8.916,-1.147Z" style="fill:#c03a2b;fill-rule:nonzero;"/><path id="Shape14" serif:id="Shape" d="M379.498,208.684c-14.06,31.782 -30.681,62.367 -49.699,91.454l-38.489,-0l0,-45.55c6.998,-24.55 16.186,-48.421 27.454,-71.327c0,-0.089 0.088,-0.177 0.177,-0.265c18.806,11.507 39.213,20.164 60.557,25.688Z" style="fill:#2980ba;fill-rule:nonzero;"/><path id="Shape15" serif:id="Shape" d="M394.152,169.754c-2.56,8.21 -5.473,16.42 -8.651,24.453c-1.854,4.855 -3.884,9.71 -5.915,14.477l-0.088,0c-21.344,-5.524 -41.751,-14.181 -60.557,-25.688c6.179,-12.888 12.976,-25.512 20.127,-37.959c17.92,8.033 36.193,16.331 54.642,24.541c0.177,0.088 0.265,0.088 0.442,0.176Z" style="fill:#bdc3c7;fill-rule:nonzero;"/><path id="Shape16" serif:id="Shape" d="M393.71,169.578c-18.449,-8.21 -36.722,-16.508 -54.642,-24.541c-0,0 -21.893,-42.549 20.744,-64.529c30.173,-15.493 46.99,-28.725 55.085,-43.494c1.688,-2.899 4.884,-4.579 8.229,-4.325c3.346,0.253 6.252,2.396 7.484,5.517c12.8,32.273 26.659,94.914 -36.9,131.372Z" style="fill:#a56a43;fill-rule:nonzero;"/><path id="Shape17" serif:id="Shape" d="M388.122,143.386c-3.93,0.005 -7.391,-2.59 -8.488,-6.364c-1.096,-3.775 0.435,-7.82 3.757,-9.922c10.972,-7.193 18.603,-18.484 21.186,-31.347c0.488,-4.851 4.815,-8.388 9.666,-7.901c4.851,0.488 8.389,4.815 7.901,9.666c-3.105,18.288 -13.741,34.435 -29.316,44.509c-1.409,0.888 -3.04,1.359 -4.706,1.359Z" style="fill:#805333;fill-rule:nonzero;"/><path id="Shape18" serif:id="Shape" d="M377.333,308.966l-242.666,-0c-4.787,-0 -8.667,-3.953 -8.667,-8.828c-0,-4.875 3.88,-8.828 8.667,-8.828l242.666,0c4.787,0 8.667,3.953 8.667,8.828c0,4.875 -3.88,8.828 -8.667,8.828Z" style="fill:#f7a831;fill-rule:nonzero;"/></g></svg>